# xmcd CD database file
#
# Track frame offsets:
#	150
#	36425
#	69650
#	100723
#	145063
#	177995
#	216235
#	252727
#	286614
#
# Disc length: 4270 seconds
#
# Revision: 0
# Processed by: cddbd v1.5.2PL0 Copyright (c) Steve Scherf et al.
# Submitted via: CDex 1.70beta2
#
DISCID=8810ac09
DTITLE=NATHAN HAINES - THE CHILLIFUNK YEARS [CD2)
DYEAR=2006
DGENRE=Jazz
TTITLE0=BELIEVE FEATURING SHELLEY NELSON (KENNY DOPE REMIX)
TTITLE1=EARTH IS THE PLACE (DJ GREGORY ＆ JULIAN JABRE REMIX)
TTITLE2=SQUIRE FOR HIRE FEATURING MARLENA SHAW (CAPRICORN MIX)
TTITLE3=RIGHT BY YOUR SIDE (AQUARIUS MIX)
TTITLE4=DOOT DUDE FEAT LYRIC L (ASHLEY BEEDLE REMIX)
TTITLE5=U SEE THAT (NOTENSHUN REWORK)
TTITLE6=SURPRISING (RESTLESS SOUL PEAKTIME MIX)
TTITLE7=LONG (4HERO REMIX)
TTITLE8=O MISTERIO FEATURING GUIDA DE PALMA (YAM WHO VOCAL REMIX)
EXTD=YEAR: 2006
EXTT0=
EXTT1=
EXTT2=
EXTT3=
EXTT4=
EXTT5=
EXTT6=
EXTT7=
EXTT8=
PLAYORDER=
